<svg width="29" height="25" viewBox="0 0 29 25" fill="none" xmlns="http://www.w3.org/2000/svg">
<path id="Vector" d="M24.1113 0H4.21871C1.8784 0 0 1.8414 0 4.10542V14.369C0 16.6632 1.8784 18.5046 4.21871 18.5046H5.91235V21.9761C5.91235 22.9723 6.55901 23.8477 7.48282 24.1496C8.43741 24.4816 9.48439 24.1797 10.1003 23.3949L14.1034 18.4744H24.1113C26.4516 18.5046 28.33 16.6632 28.33 14.369V4.10542C28.33 1.8414 26.4516 0 24.1113 0ZM7.0825 11.5616C5.78917 11.5616 4.7114 10.5352 4.7114 9.2372C4.7114 7.93917 5.75838 6.91281 7.0825 6.91281C8.37583 6.91281 9.4536 7.93917 9.4536 9.2372C9.4536 10.5352 8.37583 11.5616 7.0825 11.5616ZM14.165 11.5616C12.8717 11.5616 11.7939 10.5352 11.7939 9.2372C11.7939 7.93917 12.8409 6.91281 14.165 6.91281C15.4891 6.91281 16.5361 7.93917 16.5361 9.2372C16.5361 10.5352 15.4583 11.5616 14.165 11.5616ZM21.2475 11.5616C19.9542 11.5616 18.8764 10.5352 18.8764 9.2372C18.8764 7.93917 19.9234 6.91281 21.2475 6.91281C22.5408 6.91281 23.6186 7.93917 23.6186 9.2372C23.6186 10.5352 22.5408 11.5616 21.2475 11.5616Z" fill="white"/>
</svg>
