<svg width="30" height="30" viewBox="0 0 30 30" fill="none" xmlns="http://www.w3.org/2000/svg">
<path id="Vector" d="M19.3752 0C17.6286 0 16.1286 1.03635 15.4278 2.52011C13.1085 2.62559 11.25 4.53028 11.25 6.87489C11.25 8.18649 11.8422 9.35168 12.7593 10.1545C10.6632 10.441 8.69248 11.1247 7.03469 12.157C6.27239 11.5693 5.34509 11.2501 4.37519 11.2501C4.02959 11.2501 3.74999 11.5297 3.74999 11.8753C3.74999 12.7378 4.01399 13.5814 4.50179 14.3023C3.66389 15.2806 3.07199 16.3705 2.76443 17.5003H2.5002C1.12137 17.5003 0 18.621 0 19.9998C0 21.3909 0.705119 22.6605 1.88556 23.397L6.25025 26.1165V29.3748C6.25025 29.7204 6.52925 30 6.87485 30H9.37504C9.61174 30 9.82774 29.8662 9.93394 29.6544L10.674 28.1748C13.44 28.9377 16.5597 28.9377 19.326 28.1748L20.0661 29.6544C20.1723 29.8662 20.3883 30 20.625 30H23.1252C23.4708 30 23.7498 29.7204 23.7498 29.3748V26.0655C26.1375 24.309 27.4998 21.8868 27.4998 19.3752C27.4998 18.4644 27.3174 17.5863 26.9931 16.7533C27.4164 16.2811 27.852 15.6661 28.1841 14.8666C28.5675 14.9533 28.9677 15.0001 29.3748 15.0001C29.7204 15.0001 30 14.7205 30 14.3749C30 14.0296 29.7204 13.7503 29.3748 13.7503C29.091 13.7503 28.8186 13.7212 28.5609 13.6693C28.68 13.1311 28.7496 12.5338 28.7496 11.8753C28.7496 10.8415 27.9087 10.0003 26.8746 10.0003C25.8408 10.0003 24.9996 10.8415 24.9996 11.8753C24.9996 12.9025 25.8219 13.8718 27.0012 14.4511C26.8206 14.8705 26.6061 15.2218 26.3841 15.5239C24.8598 13 21.8913 11.0746 18.27 10.3366C18.8127 9.91808 19.2549 9.37238 19.5567 8.73159C21.8832 8.63409 23.7498 6.72519 23.7498 4.3753C23.7498 1.96325 21.7872 0 19.3752 0ZM19.3752 1.2498C21.0981 1.2498 22.5 2.65214 22.5 4.37518C22.5 6.09838 21.0981 7.49997 19.3752 7.49997C17.6523 7.49997 16.2498 6.09808 16.2498 4.37518C16.2498 2.6522 17.652 1.2498 19.3752 1.2498ZM19.3752 2.50019C19.0296 2.50019 18.75 2.77934 18.75 3.12479V5.62498C18.75 5.97058 19.0296 6.25018 19.3752 6.25018C19.7208 6.25018 19.9998 5.97058 19.9998 5.62498V3.12479C19.9998 2.77934 19.7208 2.50019 19.3752 2.50019ZM15.0567 3.81569C15.0327 4.00078 15 4.18378 15 4.37518C15 4.69348 15.0384 5.00188 15.1032 5.30098C15.0435 5.39668 15 5.50378 15 5.62498V8.12517C15 8.47077 15.2796 8.74977 15.6252 8.74977C15.9708 8.74977 16.2498 8.47077 16.2498 8.12517V7.42737C16.7835 7.97367 17.4627 8.36637 18.219 8.57517C17.652 9.44576 16.6869 10.0002 15.6252 10.0002C13.902 10.0002 12.4998 8.59797 12.4998 6.87477C12.4998 5.35648 13.5897 4.09168 15.0567 3.81569ZM26.8751 11.25C27.2201 11.25 27.4997 11.5302 27.4997 11.8752C27.4997 12.369 27.4538 12.8201 27.3737 13.2314C26.6792 12.8366 26.2499 12.2919 26.2499 11.8752C26.2499 11.5305 26.5301 11.25 26.8751 11.25ZM15 12.5127C16.6308 12.5127 18.2616 12.7268 19.5696 13.1561C19.8981 13.2635 20.0763 13.6169 19.9686 13.9445C19.8822 14.2082 19.6383 14.3747 19.3752 14.3747C19.3104 14.3747 19.2447 14.3651 19.1802 14.3435C16.812 13.5662 13.188 13.5662 10.8198 14.3435C10.4946 14.4536 10.14 14.273 10.0314 13.9445C9.92368 13.6169 10.1019 13.2635 10.4304 13.1561C11.7384 12.7268 13.3692 12.5127 15 12.5127ZM6.25019 16.2497C6.93929 16.2497 7.49999 16.811 7.49999 17.5001C7.49999 18.1892 6.93929 18.7499 6.25019 18.7499C5.56109 18.7499 4.99979 18.1892 4.99979 17.5001C4.99979 16.811 5.56109 16.2497 6.25019 16.2497Z" fill="white"/>
</svg>
