<svg width="23" height="31" viewBox="0 0 23 31" fill="none" xmlns="http://www.w3.org/2000/svg">
<g id="Group 26086749">
<path id="Vector" d="M11.2486 19.0783C11.5329 19.0783 11.7856 19.0783 11.9751 19.0467L8.65864 15.7618C8.43755 15.5407 8.43755 15.1933 8.65864 14.9722C8.87974 14.7511 9.22718 14.7511 9.44827 14.9722L12.7647 18.2886C12.8279 17.4043 12.8911 14.7511 11.3118 13.1403C9.41669 11.2452 6.03707 11.6873 5.87915 11.6873C5.62647 11.7189 5.43696 11.9084 5.40537 12.1611C5.37379 12.319 4.93159 15.6987 6.85829 17.5938C8.1217 18.8572 10.0484 19.0783 11.2486 19.0783Z" fill="white"/>
<path id="Vector_2" d="M22.8647 12.1596C22.8331 11.9069 22.6436 11.7174 22.3909 11.6858C22.233 11.6542 18.8533 11.212 16.9582 13.1072C15.3474 14.718 15.4106 17.3711 15.5053 18.2555L18.8218 14.9391C19.0429 14.718 19.3903 14.718 19.6114 14.9391C19.8325 15.1602 19.8325 15.5076 19.6114 15.7287L16.2949 19.0452C16.4845 19.0452 16.7055 19.0767 17.0214 19.0767C18.19 19.0767 20.1483 18.8557 21.4433 17.5922C23.3068 15.6971 22.8647 12.3175 22.8647 12.1596Z" fill="white"/>
<path id="Vector_3" d="M3.12693 21.6699H0.568533C0.252681 21.6699 0 21.9226 0 22.2385V29.0609C0 29.3767 0.252681 29.6294 0.568533 29.6294H3.12693C3.44278 29.6294 3.69546 29.3767 3.69546 29.0609V22.2385C3.66388 21.9226 3.4112 21.6699 3.12693 21.6699Z" fill="white"/>
<path id="Vector_4" d="M20.6663 22.5845C20.382 22.4266 20.0662 22.4266 19.7503 22.5529L15.4232 24.3217C15.4547 24.5428 15.4232 24.7954 15.3284 25.0481C15.0441 25.9325 14.1282 26.4695 13.2122 26.2799L9.57991 25.4903C9.26405 25.4271 9.07454 25.1429 9.13771 24.827C9.20088 24.5112 9.48515 24.3217 9.801 24.3848L13.4649 25.1429C13.8123 25.2061 14.1598 25.0165 14.2861 24.6691C14.3809 24.3217 14.2545 23.9742 13.9387 23.8163L10.2432 21.9212C9.51674 21.5422 8.66394 21.479 7.90589 21.7317L4.81055 22.774V28.4909L10.8117 29.9122C12.012 30.1965 13.2754 29.9438 14.2545 29.2174L20.7926 24.3848C21.1401 24.1322 21.298 23.7216 21.2032 23.3109C21.1401 22.9951 20.9506 22.7108 20.6663 22.5845Z" fill="white"/>
<path id="Vector_5" d="M13.5761 10.9916V22.3623L14.4289 22.8045C14.5236 22.8677 14.6184 22.9308 14.7131 22.994V10.9916C17.4926 10.7074 19.6404 8.37007 19.6404 5.5274C19.6404 2.49523 17.1768 0 14.113 0C11.0808 0 8.61719 2.46364 8.61719 5.5274C8.61719 8.37007 10.7966 10.7074 13.5761 10.9916ZM12.0916 5.84326C12.0916 5.7485 12.1547 5.68533 12.2495 5.68533H13.3865C13.7972 5.68533 14.1762 5.43265 14.3341 5.08521H12.2495C12.1547 5.08521 12.0916 5.02204 12.0916 4.92729V4.32717C12.0916 4.23241 12.1547 4.16924 12.2495 4.16924H14.3341C14.1762 3.79022 13.7972 3.56912 13.3865 3.56912H12.2495C12.1547 3.56912 12.0916 3.50595 12.0916 3.4112V2.7795C12.0916 2.68474 12.1547 2.62157 12.2495 2.62157H16.0397C16.1345 2.62157 16.1976 2.68474 16.1976 2.7795V3.37961C16.1976 3.47437 16.1345 3.53754 16.0397 3.53754H15.0606C15.1869 3.72705 15.2817 3.94815 15.3448 4.20083H16.0397C16.1345 4.20083 16.1976 4.264 16.1976 4.35875V4.95887C16.1976 5.05363 16.1345 5.1168 16.0397 5.1168H15.3448C15.1237 6.00118 14.3341 6.66447 13.3865 6.66447H13.2602L15.2185 8.65434C15.2501 8.68592 15.2817 8.74909 15.2501 8.81226C15.2185 8.87543 15.1869 8.90702 15.1237 8.90702H14.2393C14.2078 8.90702 14.1762 8.90702 14.1446 8.87543L12.1863 6.88557C12.1547 6.85398 12.1547 6.8224 12.1547 6.79081V5.84326H12.0916Z" fill="white"/>
</g>
</svg>
