<svg width="21" height="25" viewBox="0 0 21 25" fill="none" xmlns="http://www.w3.org/2000/svg">
<g id="Group">
<path id="Vector" fill-rule="evenodd" clip-rule="evenodd" d="M1.50953e-05 5.78516V6.08955V24.6577V24.9621H0.304411H14.9154H15.2198V24.6577V11.5687V11.2643H14.9154H11.2627C11.1235 11.2655 10.9482 11.091 10.9488 10.9599L10.9583 6.08955V5.78516H10.6539H0.304396H1.50953e-05ZM2.73958 8.22032H6.39233C6.52647 8.22035 6.69671 8.39058 6.69673 8.52472V12.1775C6.69671 12.3116 6.52647 12.4818 6.39233 12.4819H2.73958C2.60544 12.4818 2.43521 12.3116 2.43518 12.1775V8.52472C2.43521 8.39058 2.60544 8.22035 2.73958 8.22032ZM2.73958 14.6126H2.74908H12.7846C12.919 14.6096 13.0985 14.7819 13.0985 14.917C13.0985 15.0522 12.919 15.2236 12.7846 15.2214H2.74908H2.73958C2.6052 15.2245 2.43518 15.0522 2.43518 14.917C2.43518 14.7819 2.6052 14.6105 2.73958 14.6126ZM2.73958 17.0478H2.74908H12.7846C12.9189 17.0448 13.0985 17.2172 13.0985 17.3522C13.0985 17.4872 12.9189 17.6585 12.7846 17.6566H2.74908H2.73958C2.6053 17.6596 2.43518 17.4872 2.43518 17.3522C2.43518 17.2172 2.6053 17.0459 2.73958 17.0478ZM2.73958 19.483H2.74908H12.7846C12.9189 19.4799 13.0985 19.6523 13.0985 19.7874C13.0985 19.9224 12.9189 20.0937 12.7846 20.0918H2.74908H2.73958C2.6053 20.0948 2.43518 19.9224 2.43518 19.7874C2.43518 19.6523 2.6053 19.4811 2.73958 19.483ZM2.73958 21.9181H2.74908H12.7846C12.919 21.9151 13.0985 22.0874 13.0985 22.2225C13.0985 22.3577 12.919 22.5291 12.7846 22.5269H2.74908H2.73958C2.6052 22.53 2.43518 22.3577 2.43518 22.2225C2.43518 22.0874 2.6052 21.916 2.73958 21.9181Z" fill="white"/>
<path id="Vector_2" fill-rule="evenodd" clip-rule="evenodd" d="M4.87305 0H5.17744H15.5269H15.8313V0.304396V4.26155L14.5281 2.44468C14.3066 2.13463 14.2689 2.13077 14.0049 2.13077H5.17744H4.87305V1.82638V0.304396V0Z" fill="white"/>
<path id="Vector_3" fill-rule="evenodd" clip-rule="evenodd" d="M16.4336 0.648438L16.9758 1.33333L19.411 4.37729L19.8105 4.87193H19.1732H16.738H16.4336V4.56754V1.52358V0.648438Z" fill="white"/>
<path id="Vector_4" fill-rule="evenodd" clip-rule="evenodd" d="M2.73633 2.73438H3.04072H13.3902H13.6946V3.03877V6.99592V7.90911L11.7686 5.47394C11.6309 5.32398 11.5349 5.16954 11.3902 5.16954C11.433 5.17429 3.04072 5.16954 3.04072 5.16954H2.73633V4.86515V3.03877V2.73438Z" fill="white"/>
<path id="Vector_5" fill-rule="evenodd" clip-rule="evenodd" d="M14.3047 3.28906L14.8564 4.07859L16.9872 7.12255L17.3201 7.60768H16.7399H14.6091H14.3047V7.30329V4.25933V3.28906Z" fill="white"/>
<path id="Vector_6" fill-rule="evenodd" clip-rule="evenodd" d="M16.7402 5.47461H17.349H19.7842H20.0886V5.77901V18.868V19.1724H19.7842H18.5666H18.2622V18.868V7.90978C18.2622 7.61982 18.1135 7.45103 18.0054 7.26769L16.7402 5.47461Z" fill="white"/>
<path id="Vector_7" fill-rule="evenodd" clip-rule="evenodd" d="M11.5625 6.38867L14.9109 10.6502H11.5625C11.5625 9.06224 11.5625 7.88123 11.5625 6.38867Z" fill="white"/>
<path id="Vector_8" fill-rule="evenodd" clip-rule="evenodd" d="M13.9766 8.2207H14.6139H17.3535H17.6579V8.5251V21.6141V21.9185H17.3535H16.1359H15.8315V21.6141V10.6559C15.8315 10.665 15.8481 10.5774 15.7554 10.4846L13.9766 8.2207Z" fill="white"/>
</g>
</svg>
