<svg width="24" height="27" viewBox="0 0 24 27" fill="none" xmlns="http://www.w3.org/2000/svg">
<path id="Vector" fill-rule="evenodd" clip-rule="evenodd" d="M13.3022 8.74208C13.0012 8.44538 12.6052 8.26075 12.1817 8.21964C11.7582 8.17853 11.3333 8.28348 10.9795 8.51663C10.6256 8.74977 10.3647 9.09668 10.2411 9.49827C10.1175 9.89985 10.1389 10.3313 10.3017 10.719C10.4645 11.1068 10.7585 11.4269 11.1338 11.6249C11.509 11.8228 11.9423 11.8863 12.3597 11.8046C12.7771 11.7229 13.1529 11.501 13.423 11.1768C13.6932 10.8525 13.841 10.4459 13.8412 10.0262C13.8417 9.7877 13.7943 9.55144 13.7018 9.33106C13.6092 9.11067 13.4734 8.91051 13.3022 8.74208ZM16.6724 15.2261C16.632 15.2685 16.5908 15.3103 16.5488 15.3515C15.9516 15.9405 15.2425 16.4077 14.4621 16.7265C13.6817 17.0453 12.8453 17.2094 12.0006 17.2094C11.1559 17.2094 10.3195 17.0453 9.53912 16.7265C8.75874 16.4077 8.04966 15.9405 7.45238 15.3515C7.41039 15.3103 7.3691 15.2685 7.32852 15.2261C7.47341 14.4583 7.81037 13.7384 8.30884 13.1316C8.8073 12.5248 9.45151 12.0503 10.183 11.7511C10.1942 11.7628 10.2057 11.7741 10.2169 11.7855C10.6904 12.2523 11.3325 12.5145 12.002 12.5145C12.6715 12.5145 13.3135 12.2523 13.787 11.7855L13.8206 11.7514C14.552 12.0505 15.196 12.525 15.6943 13.1318C16.1926 13.7385 16.5293 14.4584 16.6739 15.2261H16.6724ZM12 7.53589C11.5644 7.53604 11.1362 7.64732 10.7571 7.85891C10.378 8.0705 10.0608 8.37521 9.8364 8.74342C9.61201 9.11163 9.48802 9.53082 9.47648 9.96026C9.46494 10.3897 9.56625 10.8148 9.77055 11.1942C9.05505 11.5125 8.4177 11.9795 7.9021 12.5631C7.3865 13.1468 7.0048 13.8334 6.78312 14.5759C6.0905 13.6287 5.67652 12.5112 5.5868 11.3467C5.49708 10.1822 5.73511 9.01588 6.27466 7.97628C6.8142 6.93667 7.63432 6.06414 8.64462 5.45484C9.65493 4.84554 10.8162 4.52312 12.0005 4.52312C13.1847 4.52312 14.346 4.84554 15.3563 5.45484C16.3666 6.06414 17.1867 6.93667 17.7262 7.97628C18.2658 9.01588 18.5038 10.1822 18.4141 11.3467C18.3244 12.5112 17.9104 13.6287 17.2178 14.5759C16.9961 13.8331 16.6143 13.1463 16.0986 12.5624C15.5829 11.9785 14.9454 11.5113 14.2297 11.1927C14.4339 10.8133 14.5351 10.3883 14.5234 9.95903C14.5118 9.52971 14.3877 9.11067 14.1633 8.74261C13.9388 8.37456 13.6217 8.07001 13.2426 7.85856C12.8636 7.64711 12.4355 7.53596 12 7.53589ZM15.7606 2.29273C15.8193 2.32968 15.8815 2.36108 15.9462 2.3865C16.0109 2.41187 16.0779 2.43097 16.1464 2.44354L19.5874 3.08441C19.6661 3.09726 19.7388 3.13349 19.796 3.18825C19.8531 3.24301 19.8919 3.31369 19.9072 3.39081L20.8057 7.42509C20.8201 7.49242 20.8413 7.55816 20.869 7.6213C20.8968 7.68416 20.9308 7.74418 20.9705 7.80048L22.9446 10.6534C22.9907 10.7174 23.0164 10.7935 23.0185 10.872C23.019 10.9513 22.9957 11.029 22.9516 11.0953L20.694 14.5759C20.6565 14.6333 20.6246 14.6941 20.5989 14.7575C20.5731 14.8213 20.5538 14.8874 20.5411 14.9549L20.1513 16.9919V16.9979L19.8927 18.3483C19.8798 18.4259 19.8432 18.4976 19.7877 18.554C19.7322 18.6104 19.6605 18.6487 19.5823 18.6637L15.491 19.5497C15.4228 19.564 15.3562 19.5848 15.2921 19.6119C15.2284 19.6395 15.1676 19.6731 15.1104 19.7122L12.2174 21.659C12.1525 21.7044 12.0753 21.7297 11.9958 21.7319C11.9153 21.7324 11.8365 21.7094 11.7692 21.6659L8.23944 19.4395C8.18124 19.4026 8.11959 19.3712 8.05532 19.3458C7.99064 19.3204 7.9236 19.3013 7.85515 19.2887L4.41347 18.6482C4.33484 18.6354 4.26205 18.5993 4.20487 18.5446C4.1477 18.4899 4.1089 18.4192 4.09368 18.3421L3.19517 14.3072C3.18072 14.2399 3.15952 14.1741 3.13188 14.111C3.10397 14.0482 3.07 13.9882 3.03043 13.9318L1.05597 11.0792C1.01018 11.0151 0.984589 10.939 0.982385 10.8606C0.981897 10.7812 1.00518 10.7034 1.04931 10.6369L3.30631 7.15871C3.34385 7.10092 3.3757 7.03972 3.4014 6.97594C3.42709 6.91214 3.44646 6.84603 3.45924 6.77855L4.10882 3.38454C4.1217 3.307 4.15836 3.23522 4.21385 3.17884C4.26934 3.12246 4.34101 3.08419 4.41922 3.06918L8.51108 2.18253C8.57926 2.168 8.64588 2.1471 8.71004 2.12011C8.77376 2.09267 8.83461 2.05916 8.89174 2.02007L11.7847 0.0729593C11.8497 0.0266736 11.9276 0.00121784 12.0077 4.26079e-05C12.0879 -0.00113263 12.1665 0.0220294 12.2329 0.0663892L15.7603 2.29213L15.7606 2.29273ZM15.8017 20.1721L19.4151 26.344L20.2958 23.1029C20.3073 23.0601 20.3272 23.02 20.3545 22.9848C20.3817 22.9496 20.4157 22.9201 20.4546 22.8979C20.4934 22.8757 20.5364 22.8613 20.5809 22.8555C20.6254 22.8496 20.6706 22.8526 20.714 22.864L24 23.7321L20.6504 18.0118L20.5626 18.4723C20.5245 18.68 20.4246 18.8719 20.2754 19.0233C20.1263 19.1748 19.9347 19.2789 19.7252 19.3225L15.8017 20.1721ZM3.32842 18.0482L0 23.733L3.28693 22.8646C3.3303 22.8531 3.37554 22.8502 3.42004 22.8561C3.46455 22.8619 3.50746 22.8763 3.54631 22.8985C3.58516 22.9207 3.61919 22.9502 3.64644 22.9854C3.6737 23.0206 3.69364 23.0607 3.70514 23.1035L4.58578 26.3446L8.1822 20.2017L7.87332 20.007C7.8515 19.9927 7.82826 19.9807 7.80397 19.9711C7.78008 19.9621 7.75532 19.9555 7.73008 19.9514L4.28779 19.3096C4.0771 19.2722 3.88251 19.1737 3.72888 19.0267C3.57526 18.8796 3.46957 18.6908 3.42533 18.4842L3.32842 18.0482ZM12 3.84862C13.6464 3.84862 15.242 4.4116 16.5147 5.44162C17.7874 6.47165 18.6586 7.905 18.9798 9.49744C19.301 11.0899 19.0524 12.7429 18.2762 14.1748C17.5001 15.6067 16.2445 16.729 14.7234 17.3503C13.2023 17.9717 11.5097 18.0537 9.93419 17.5824C8.35863 17.111 6.99754 16.1156 6.08282 14.7656C5.1681 13.4155 4.75635 11.7945 4.91773 10.1787C5.07911 8.56288 5.80363 7.05223 6.96785 5.90414C7.62794 5.25148 8.41232 4.7339 9.27591 4.38115C10.1395 4.02839 11.0653 3.84742 12 3.84862Z" fill="white"/>
</svg>
