<svg width="27" height="30" viewBox="0 0 27 30" fill="none" xmlns="http://www.w3.org/2000/svg">
<path d="M16.101 29.0543C20.0228 25.7636 27 19.0406 27 12.8711C27 9.45744 25.5777 6.18363 23.0459 3.76984C20.5142 1.35605 17.0804 0 13.5 0C9.91958 0 6.4858 1.35605 3.95406 3.76984C1.42232 6.18363 5.33525e-08 9.45744 0 12.8711C0 19.0406 6.975 25.7636 10.899 29.0543C11.6148 29.6634 12.5406 30 13.5 30C14.4594 30 15.3852 29.6634 16.101 29.0543ZM9 12.8711C9 11.7332 9.47411 10.6419 10.318 9.83732C11.1619 9.03272 12.3065 8.5807 13.5 8.5807C14.6935 8.5807 15.8381 9.03272 16.682 9.83732C17.5259 10.6419 18 11.7332 18 12.8711C18 14.0089 17.5259 15.1002 16.682 15.9048C15.8381 16.7094 14.6935 17.1614 13.5 17.1614C12.3065 17.1614 11.1619 16.7094 10.318 15.9048C9.47411 15.1002 9 14.0089 9 12.8711Z" fill="#00004D"/>
</svg>
