<svg width="36" height="37" viewBox="0 0 36 37" fill="none" xmlns="http://www.w3.org/2000/svg">
<path id="Vector" d="M0.0970039 2.59503C-0.42632 0.923399 1.26709 -0.569839 2.79592 0.215102L34.9334 16.7266C36.3555 17.4574 36.3555 19.5413 34.9334 20.2734L2.79592 36.7849C1.26838 37.5698 -0.42632 36.0766 0.0970039 34.405L5.07565 18.5L0.0970039 2.59503ZM7.36182 19.8214L3.0145 33.7178L32.6357 18.5L3.01322 3.28219L7.3644 17.1772H21.8555C22.1965 17.1772 22.5235 17.3165 22.7647 17.5643C23.0058 17.8121 23.1413 18.1482 23.1413 18.4987C23.1413 18.8491 23.0058 19.1853 22.7647 19.4331C22.5235 19.6809 22.1965 19.8201 21.8555 19.8201H7.3644L7.36182 19.8214Z" fill="white"/>
</svg>
