<svg width="37" height="37" viewBox="0 0 37 37" fill="none" xmlns="http://www.w3.org/2000/svg">
<path id="Vector" d="M18.5 0C28.7174 0 37 8.28347 37 18.5018C37 28.7184 28.7155 37 18.5 37C8.28264 37.0019 0 28.7184 0 18.5018C0 8.28347 8.28264 0 18.5 0ZM18.5 2.77472C16.4207 2.75217 14.3575 3.14228 12.4299 3.92248C10.5023 4.70268 8.74862 5.85747 7.27027 7.32003C5.79192 8.78258 4.61829 10.5238 3.81731 12.443C3.01632 14.3622 2.6039 16.4213 2.6039 18.5009C2.6039 20.5806 3.01632 22.6396 3.81731 24.5588C4.61829 26.478 5.79192 28.2193 7.27027 29.6818C8.74862 31.1444 10.5023 32.2992 12.4299 33.0794C14.3575 33.8596 16.4207 34.2497 18.5 34.2271C22.6409 34.1822 26.5969 32.5056 29.5092 29.5612C32.4215 26.6169 34.055 22.6425 34.055 18.5009C34.055 14.3594 32.4215 10.385 29.5092 7.44063C26.5969 4.49628 22.6409 2.81964 18.5 2.77472ZM11.956 23.6499C12.7345 24.641 13.7282 25.4419 14.862 25.9922C15.9957 26.5425 17.2398 26.8276 18.5 26.826C19.7588 26.8276 21.0016 26.5429 22.1343 25.9937C23.267 25.4444 24.26 24.6449 25.0384 23.6554C25.1514 23.5125 25.2914 23.3932 25.4504 23.3043C25.6095 23.2155 25.7845 23.1588 25.9654 23.1376C26.1464 23.1164 26.3297 23.131 26.505 23.1807C26.6803 23.2303 26.8441 23.314 26.987 23.427C27.13 23.5399 27.2493 23.6799 27.3381 23.839C27.4269 23.9981 27.4836 24.1731 27.5048 24.3541C27.526 24.535 27.5114 24.7184 27.4617 24.8937C27.4121 25.069 27.3284 25.2328 27.2155 25.3758C26.1774 26.694 24.8536 27.7593 23.3438 28.4911C21.834 29.223 20.1778 29.6024 18.5 29.6007C16.8198 29.6024 15.1612 29.2219 13.6496 28.488C12.1381 27.7541 10.8133 26.6861 9.77529 25.3647C9.66259 25.2215 9.57919 25.0575 9.52986 24.882C9.48053 24.7066 9.46624 24.5232 9.48779 24.3422C9.50935 24.1612 9.56633 23.9863 9.65549 23.8274C9.74465 23.6684 9.86423 23.5286 10.0074 23.4159C10.1506 23.3032 10.3146 23.2198 10.49 23.1704C10.6654 23.1211 10.8488 23.1068 11.0298 23.1284C11.2107 23.1499 11.3857 23.2069 11.5446 23.2961C11.7035 23.3852 11.8433 23.5048 11.956 23.648V23.6499ZM12.9511 12.49C13.2601 12.4812 13.5677 12.5345 13.8558 12.6467C14.1438 12.759 14.4064 12.9278 14.6281 13.1433C14.8497 13.3588 15.0259 13.6166 15.1462 13.9013C15.2665 14.1861 15.3285 14.4921 15.3285 14.8013C15.3285 15.1104 15.2665 15.4165 15.1462 15.7012C15.0259 15.986 14.8497 16.2438 14.6281 16.4593C14.4064 16.6748 14.1438 16.8436 13.8558 16.9558C13.5677 17.0681 13.2601 17.1214 12.9511 17.1126C12.3495 17.0956 11.7782 16.8446 11.3587 16.413C10.9392 15.9814 10.7045 15.4032 10.7045 14.8013C10.7045 14.1994 10.9392 13.6212 11.3587 13.1896C11.7782 12.758 12.3495 12.507 12.9511 12.49ZM24.0489 12.49C24.3579 12.4812 24.6655 12.5345 24.9535 12.6467C25.2416 12.759 25.5042 12.9278 25.7258 13.1433C25.9475 13.3588 26.1237 13.6166 26.244 13.9013C26.3643 14.1861 26.4263 14.4921 26.4263 14.8013C26.4263 15.1104 26.3643 15.4165 26.244 15.7012C26.1237 15.986 25.9475 16.2438 25.7258 16.4593C25.5042 16.6748 25.2416 16.8436 24.9535 16.9558C24.6655 17.0681 24.3579 17.1214 24.0489 17.1126C23.4473 17.0956 22.876 16.8446 22.4565 16.413C22.0369 15.9814 21.8022 15.4032 21.8022 14.8013C21.8022 14.1994 22.0369 13.6212 22.4565 13.1896C22.876 12.758 23.4473 12.507 24.0489 12.49Z" fill="white"/>
</svg>
