<svg width="26" height="37" viewBox="0 0 26 37" fill="none" xmlns="http://www.w3.org/2000/svg">
<path id="Vector" d="M2 24V13C2 10.0826 3.15893 7.28473 5.22183 5.22183C7.28473 3.15893 10.0826 2 13 2C15.9174 2 18.7153 3.15893 20.7782 5.22183C22.8411 7.28473 24 10.0826 24 13V27.6667C24 29.6116 23.2274 31.4768 21.8521 32.8521C20.4768 34.2274 18.6116 35 16.6667 35C14.7217 35 12.8565 34.2274 11.4812 32.8521C10.106 31.4768 9.33333 29.6116 9.33333 27.6667V13C9.33333 12.0275 9.71964 11.0949 10.4073 10.4073C11.0949 9.71964 12.0275 9.33333 13 9.33333C13.9725 9.33333 14.9051 9.71964 15.5927 10.4073C16.2804 11.0949 16.6667 12.0275 16.6667 13V27.6667" stroke="white" stroke-width="3" stroke-linecap="round" stroke-linejoin="round"/>
</svg>
