<svg width="66" height="66" viewBox="0 0 66 66" fill="none" xmlns="http://www.w3.org/2000/svg">
<g id="material-symbols:play-circle-rounded">
<path id="Vector" d="M26.125 25.6437V40.3563C26.125 41.4104 26.6062 42.2125 27.5687 42.7625C28.5312 43.3125 29.4708 43.2667 30.3875 42.625L41.8 35.3375C42.6708 34.7875 43.1063 34.0083 43.1063 33C43.1063 31.9917 42.6708 31.2125 41.8 30.6625L30.3875 23.375C29.4708 22.7333 28.5312 22.6875 27.5687 23.2375C26.6062 23.7875 26.125 24.5896 26.125 25.6437ZM33 60.5C29.1958 60.5 25.6208 59.7777 22.275 58.333C18.9292 56.8883 16.0188 54.9294 13.5438 52.4563C11.0688 49.9813 9.10983 47.0708 7.667 43.725C6.22417 40.3792 5.50183 36.8042 5.5 33C5.5 29.1958 6.22233 25.6208 7.667 22.275C9.11167 18.9292 11.0706 16.0188 13.5438 13.5438C16.0188 11.0688 18.9292 9.10983 22.275 7.667C25.6208 6.22417 29.1958 5.50183 33 5.5C36.8042 5.5 40.3792 6.22233 43.725 7.667C47.0708 9.11167 49.9813 11.0706 52.4563 13.5438C54.9313 16.0188 56.8911 18.9292 58.3357 22.275C59.7804 25.6208 60.5018 29.1958 60.5 33C60.5 36.8042 59.7777 40.3792 58.333 43.725C56.8883 47.0708 54.9294 49.9813 52.4563 52.4563C49.9813 54.9313 47.0708 56.8911 43.725 58.3357C40.3792 59.7804 36.8042 60.5018 33 60.5Z" fill="white"/>
</g>
</svg>
